<?xml version="1.0" encoding="UTF-8"?>
<svg version="1.1" xmlns="http://www.w3.org/2000/svg" width="500" height="500">
<path d="M0 0 C11.7599554 8.49156354 19.58430559 20.29275016 22.25 34.6875 C23.74625445 49.15129302 20.59152955 63.30794789 11.38818359 74.86572266 C2.75350993 84.91223445 -9.08452092 91.69170987 -22.375 93.3125 C-28.73061339 93.66681991 -34.30661274 93.29851765 -40.375 91.3125 C-41.54256833 88.97736335 -41.50406708 87.58787095 -41.5078125 84.98828125 C-41.50910156 84.12396484 -41.51039063 83.25964844 -41.51171875 82.36914062 C-41.50785156 81.46357422 -41.50398438 80.55800781 -41.5 79.625 C-41.50580078 78.2956543 -41.50580078 78.2956543 -41.51171875 76.93945312 C-41.50434153 71.95614046 -41.22163776 67.22434288 -40.375 62.3125 C-39.26382813 62.44269531 -38.15265625 62.57289063 -37.0078125 62.70703125 C-28.15149571 63.59146774 -20.68775678 64.28239525 -13.375 58.3125 C-8.25740016 52.95631742 -7.0621244 47.78640519 -7.15625 40.62109375 C-7.68829819 35.00608518 -10.44736261 30.24013739 -14.375 26.3125 C-20.07037943 22.26891274 -25.51590062 21.43872938 -32.375 22.3125 C-38.0901541 23.44742422 -41.44547974 25.86343801 -45.1484375 30.30078125 C-48.83700912 36.35050858 -48.71126811 42.53591411 -48.7890625 49.3984375 C-48.80842865 50.45535797 -48.8277948 51.51227844 -48.8477478 52.60122681 C-48.90732914 55.96323684 -48.95384342 59.32528151 -49 62.6875 C-49.03819948 64.97267084 -49.07725236 67.25782758 -49.1171875 69.54296875 C-49.21301302 75.132687 -49.29812289 80.72249076 -49.375 86.3125 C-50.365 86.8075 -50.365 86.8075 -51.375 87.3125 C-53.14453125 86.45703125 -53.14453125 86.45703125 -55.1875 85.125 C-56.18716797 84.48498047 -56.18716797 84.48498047 -57.20703125 83.83203125 C-68.60475764 75.84335455 -74.73656538 64.64636894 -78.125 51.375 C-79.45520119 35.08003539 -76.29618935 21.42952095 -65.75 8.625 C-48.33591328 -9.81344477 -21.5107088 -13.50484349 0 0 Z " fill="#CBFB42" transform="translate(251.375,184.6875)"/>
<path d="M0 0 C9.82206979 7.74834311 15.7000048 18.80227264 18 31 C19.81502241 47.98175478 15.54516445 61.31101703 5.75 75.1875 C-3.93691367 85.0945708 -17.06198408 90.98004754 -30.9375 91.3125 C-41.96519342 91.20035397 -51.49410219 87.78754839 -60.890625 82.171875 C-62.88921271 80.83811902 -62.88921271 80.83811902 -65 81 C-64.99777939 81.76785828 -64.99555878 82.53571655 -64.99327087 83.32684326 C-64.97322734 90.56593978 -64.95800512 97.80502283 -64.94818783 105.04413986 C-64.94297099 108.76576675 -64.9358951 112.48737069 -64.92456055 116.20898438 C-64.91368907 119.80106074 -64.90771412 123.39311505 -64.90512276 126.9852066 C-64.9032762 128.35511879 -64.89967034 129.72502977 -64.89426994 131.09493256 C-64.88700312 133.01477377 -64.88659146 134.93463722 -64.88647461 136.85449219 C-64.884254 137.94703308 -64.88203339 139.03957397 -64.87974548 140.16522217 C-64.98496379 142.64554913 -65.14407715 144.67506878 -66 147 C-68.58008592 148.29004296 -70.55741574 148.20410224 -73.4375 148.25 C-74.88962891 148.28867187 -74.88962891 148.28867187 -76.37109375 148.328125 C-79 148 -79 148 -80.64007664 146.81983662 C-82.5063618 144.32239141 -82.38002483 142.65759886 -82.38768005 139.55448914 C-82.39758469 138.42312531 -82.40748932 137.29176147 -82.41769409 136.12611389 C-82.41319244 134.88397629 -82.4086908 133.64183868 -82.40405273 132.36206055 C-82.41091599 131.0545282 -82.41777924 129.74699585 -82.42485046 128.39984131 C-82.44281972 124.81081675 -82.44160603 121.22203618 -82.43590808 117.63298011 C-82.43282036 114.63607131 -82.43890431 111.63920967 -82.44494683 108.64230758 C-82.459004 101.56984823 -82.45742208 94.49750962 -82.44604492 87.42504883 C-82.43457368 80.13307275 -82.44861965 72.84146489 -82.4754414 65.54953736 C-82.49761288 59.28698821 -82.5042322 53.02455451 -82.49836498 46.76196891 C-82.49499627 43.02260104 -82.49740399 39.28346896 -82.51461601 35.54413414 C-82.53298417 31.37122761 -82.51888324 27.19903462 -82.50170898 23.02612305 C-82.51137695 21.79005814 -82.52104492 20.55399323 -82.53100586 19.2804718 C-82.47594371 12.89850638 -82.3742212 8.81148829 -78 4 C-75.74609375 1.84765625 -75.74609375 1.84765625 -73.4375 0.0625 C-72.29087891 -0.84822266 -72.29087891 -0.84822266 -71.12109375 -1.77734375 C-70.42113281 -2.18082031 -69.72117187 -2.58429688 -69 -3 C-66 -2 -66 -2 -64 1 C-63.46632813 0.61328125 -62.93265625 0.2265625 -62.3828125 -0.171875 C-42.71393589 -13.91967111 -19.94883893 -13.0203431 0 0 Z M-56.78515625 15.52734375 C-63.18275827 22.21946453 -66.27179161 30.92022229 -66.5625 40.0625 C-66.03123334 52.13553474 -61.74210456 59.77935431 -53 68 C-45.34042323 74.22340613 -36.68594111 75.98640419 -27 75 C-16.49898492 73.11076191 -8.97747402 67.88398823 -2.5078125 59.5390625 C2.78048605 50.63389655 3.38762711 41.13036147 2 31 C-0.68903248 22.03655841 -6.24222389 14.81995591 -14.01953125 9.66015625 C-28.09681734 2.32116294 -45.10588911 5.5347979 -56.78515625 15.52734375 Z " fill="#CBFB41" transform="translate(110,187)"/>
<path d="M0 0 C1.0725 0.00515625 2.145 0.0103125 3.25 0.015625 C4.85875 0.00789063 4.85875 0.00789063 6.5 0 C9.25 0.265625 9.25 0.265625 11.25 2.265625 C11.5284729 4.8598938 11.5284729 4.8598938 11.56884766 8.18408203 C11.58871735 9.42521759 11.60858704 10.66635315 11.62905884 11.94509888 C11.64093611 13.30454327 11.65259892 14.66398955 11.6640625 16.0234375 C11.68276729 17.41064618 11.70234019 18.7978434 11.7227478 20.18502808 C11.77414812 23.83788304 11.81373125 27.49077494 11.85089111 31.14379883 C11.89088148 34.87069897 11.94199639 38.59744449 11.9921875 42.32421875 C12.08904019 49.63791488 12.17341475 56.9516856 12.25 64.265625 C13.68110107 63.43417969 13.68110107 63.43417969 15.14111328 62.5859375 C16.40908791 61.85400765 17.67715945 61.12224567 18.9453125 60.390625 C19.57219971 60.02582031 20.19908691 59.66101563 20.8449707 59.28515625 C33.06633351 52.25127838 45.96784706 51.36603995 59.5625 54.828125 C74.1739404 59.55437679 84.01923073 68.96550537 91.25 82.265625 C96.88673793 95.22600784 96.22795309 108.93044133 92.25 122.265625 C86.85986882 135.48181202 77.42977505 144.65059579 64.5703125 150.48046875 C52.44809452 155.53439049 39.87810874 155.90464314 27.4140625 151.62109375 C22.06384969 149.329089 17.14230751 146.40375378 12.25 143.265625 C11.59 144.915625 10.93 146.565625 10.25 148.265625 C4.46444471 147.59288601 0.04052537 145.81425544 -3.75 141.265625 C-4.78566861 138.15861918 -4.87823952 136.01319275 -4.88371277 132.75523376 C-4.88797775 131.60967514 -4.89224274 130.46411652 -4.89663696 129.28384399 C-4.89595718 127.39718521 -4.89595718 127.39718521 -4.89526367 125.47241211 C-4.89825557 124.13532924 -4.90165817 122.79824724 -4.90544128 121.46116638 C-4.91428023 117.82908956 -4.91661929 114.19703629 -4.91725707 110.56494975 C-4.91820606 107.53537006 -4.92188406 104.50579586 -4.92542917 101.47621828 C-4.93357255 94.33204308 -4.93601342 87.18788048 -4.93530273 80.04370117 C-4.93470126 72.66541229 -4.94526717 65.28719636 -4.9610464 57.90892595 C-4.97410219 51.57937142 -4.97948749 45.24984079 -4.97884732 38.92027289 C-4.97859185 35.13750078 -4.98147031 31.35479357 -4.99202538 27.57203484 C-5.001674 24.01716773 -5.00180799 20.46242801 -4.99450874 16.90755653 C-4.99295704 14.97565727 -5.0013313 13.04375811 -5.00994873 11.11187744 C-5.00575424 9.96913864 -5.00155975 8.82639984 -4.99723816 7.64903259 C-4.99778293 6.65186187 -4.99832769 5.65469114 -4.99888897 4.62730312 C-4.62056637 1.03744454 -3.5244786 0.34043259 0 0 Z M25.25 76.265625 C24.198125 77.02875 23.14625 77.791875 22.0625 78.578125 C15.64419008 84.7111767 12.07401771 92.00866031 11.86889648 100.97412109 C11.90524635 113.13242377 14.51522416 120.29241888 23.02734375 129.13671875 C29.33805562 135.18124945 36.82069671 138.23710975 45.5625 138.703125 C56.21207479 138.26883383 65.76060675 134.1936684 72.9609375 126.41796875 C79.20984189 118.75162995 81.73335988 109.42145275 81.0703125 99.60546875 C79.62255466 89.10183786 74.5713267 81.56507034 66.45703125 74.890625 C54.52660427 66.10645222 36.75813992 67.54580092 25.25 76.265625 Z " fill="#CBFB43" transform="translate(284.75,123.734375)"/>
<path d="M0 0 C0.33 -0.99 0.66 -1.98 1 -3 C3.5120381 -4.15463635 4.82472961 -4.04504613 7.5078125 -3.35546875 C8.37148438 -2.97003906 9.23515625 -2.58460938 10.125 -2.1875 C10.99382812 -1.83042969 11.86265625 -1.47335938 12.7578125 -1.10546875 C17.05670878 2.93129971 16.90821325 9.11699967 17.18374634 14.76954651 C17.28862156 19.26032245 17.27856737 23.75048177 17.265625 28.2421875 C17.26697462 29.89983171 17.26891762 31.55747554 17.27142334 33.21511841 C17.2743557 36.66949272 17.27013487 40.12376288 17.26074219 43.578125 C17.24929482 48.00324631 17.25595225 52.42812638 17.26788712 56.85323906 C17.27511114 60.26758649 17.27281622 63.68187659 17.26763153 67.09622574 C17.26629931 68.72849684 17.26792775 70.36077319 17.27259064 71.99303818 C17.27767072 74.26877443 17.26992747 76.54411728 17.25878906 78.81982422 C17.25719788 80.11314667 17.25560669 81.40646912 17.25396729 82.73898315 C17.01746576 85.77573431 16.60985832 87.46166919 15 90 C13.04174127 90.02694851 11.08337774 90.04637218 9.125 90.0625 C7.48917969 90.07990234 7.48917969 90.07990234 5.8203125 90.09765625 C3 90 3 90 1 89 C0.3671875 86.71484375 0.3671875 86.71484375 -0.125 83.9375 C-0.29257812 83.01839844 -0.46015625 82.09929687 -0.6328125 81.15234375 C-0.81457031 80.08693359 -0.81457031 80.08693359 -1 79 C-1.71542969 79.45890625 -2.43085938 79.9178125 -3.16796875 80.390625 C-16.08707551 88.34598699 -28.46705118 92.20028391 -43.64453125 89.3046875 C-58.51292153 85.47080138 -69.48750893 77.58206532 -77.375 64.3125 C-84.23703649 52.01434789 -85.39996634 39.10218388 -82.16015625 25.46484375 C-77.7251014 11.2126924 -68.86006573 0.71011775 -55.65234375 -6.234375 C-35.9970657 -15.5394466 -17.7569778 -11.20830513 0 0 Z M-60.42578125 16.8828125 C-67.27717011 26.09733549 -68.21240022 35.96258289 -67 47 C-64.90614526 56.22527764 -59.18779867 64.02853774 -51.5 69.4375 C-43.61378604 74.23030007 -35.41125374 75.22666738 -26.38671875 73.5 C-16.58479522 70.81704737 -8.89508451 66.41010698 -3 58 C2.56456998 48.07788073 1.83368653 37.40724531 -1.0859375 26.765625 C-3.79320666 18.57440037 -9.07402673 13.02133062 -16 8 C-30.6191068 0.87787104 -49.57813822 5.09959187 -60.42578125 16.8828125 Z " fill="#CBFB43" transform="translate(467,188)"/>
<path d="M0 0 C3.9375 0.375 3.9375 0.375 5.9375 2.375 C6.1328125 5.1953125 6.1328125 5.1953125 6.0625 8.5 C6.04445312 9.59570312 6.02640625 10.69140625 6.0078125 11.8203125 C5.98460937 12.66335937 5.96140625 13.50640625 5.9375 14.375 C8.39430745 12.90961219 10.84155555 11.43546919 13.26171875 9.91015625 C27.51637352 1.02750361 27.51637352 1.02750361 33.66796875 1.65234375 C34.79138672 2.01005859 34.79138672 2.01005859 35.9375 2.375 C37.66580077 5.83160154 37.28229202 9.58904842 36.9375 13.375 C36 15.75 36 15.75 33.9375 17.375 C32.57378865 17.84651097 31.19648395 18.27930927 29.8125 18.6875 C20.48207222 21.55024489 15.21969861 27.69093884 10.25 35.82421875 C8.16023828 39.88557114 7.80080821 43.37918502 7.68798828 47.92211914 C7.65770538 49.03329605 7.62742249 50.14447296 7.59622192 51.2893219 C7.55245926 53.0816349 7.55245926 53.0816349 7.5078125 54.91015625 C7.4341934 57.43556443 7.35995587 59.96095464 7.28515625 62.48632812 C7.17139561 66.47164418 7.06093332 70.45688458 6.96337891 74.44262695 C6.86616267 78.28646208 6.75091788 82.129414 6.6328125 85.97265625 C6.60768585 87.16955582 6.5825592 88.36645538 6.55667114 89.59962463 C6.50179031 91.26166176 6.50179031 91.26166176 6.44580078 92.95727539 C6.41994904 93.93338272 6.39409729 94.90949005 6.36746216 95.91517639 C5.87160648 98.75197837 5.22072432 99.67312204 2.9375 101.375 C0.09082193 101.9499726 -2.11088397 101.65610629 -5.0625 101.375 C-7.69236048 97.43020928 -7.35031798 94.04731172 -7.3371582 89.46899414 C-7.34226913 88.5581456 -7.34738007 87.64729706 -7.35264587 86.70884705 C-7.36656632 83.69255027 -7.36558326 80.67648136 -7.36328125 77.66015625 C-7.36716682 75.56652237 -7.3715012 73.47288927 -7.37626648 71.3792572 C-7.38373396 66.98857062 -7.38343357 62.59796443 -7.37817383 58.20727539 C-7.37237836 52.57683027 -7.38930962 46.94671401 -7.4125185 41.31632328 C-7.42724038 36.99179658 -7.42812965 32.66734936 -7.42500877 28.34280205 C-7.42552276 26.2667418 -7.43077492 24.19067719 -7.44082069 22.11464119 C-7.4531378 19.21300934 -7.44642177 16.3120217 -7.43481445 13.41040039 C-7.44245819 12.55052521 -7.45010193 11.69065002 -7.45797729 10.80471802 C-7.42652335 7.25277047 -7.40160999 4.98925963 -5.66252136 1.83909607 C-3.66073017 0.00736139 -2.68185449 -0.11028187 0 0 Z " fill="#CBFB42" transform="translate(139.0625,176.625)"/>
<path d="M0 0 C3.9375 0.375 3.9375 0.375 5.9375 2.375 C6.0625 6 6.0625 6 5.9375 9.375 C4.9475 9.375 3.9575 9.375 2.9375 9.375 C2.73125 10.014375 2.525 10.65375 2.3125 11.3125 C1.631875 12.3334375 1.631875 12.3334375 0.9375 13.375 C-1.0425 13.705 -3.0225 14.035 -5.0625 14.375 C-5.3925 41.765 -5.7225 69.155 -6.0625 97.375 C-6.3925 97.375 -6.7225 97.375 -7.0625 97.375 C-7.13196628 85.31842587 -7.18529419 73.26189925 -7.21793652 61.20516586 C-7.23360205 55.60692025 -7.2548567 50.00881142 -7.28881836 44.41064453 C-7.32137989 39.00956119 -7.33934633 33.60860952 -7.34713173 28.20743561 C-7.35268099 26.14531633 -7.36351714 24.08320437 -7.37969017 22.02114105 C-7.40142165 19.13600508 -7.4044687 16.2514154 -7.40307617 13.36621094 C-7.413862 12.51097336 -7.42464783 11.65573578 -7.4357605 10.77458191 C-7.41720797 7.2295542 -7.40017438 4.98685998 -5.664505 1.84185791 C-3.66142473 0.00775993 -2.68424934 -0.11038035 0 0 Z " fill="#CDF450" transform="translate(139.0625,176.625)"/>
<path d="M0 0 C0.33 0 0.66 0 1 0 C1.0231793 7.88432568 1.0409436 15.7686371 1.05181217 23.65298843 C1.05702876 27.31408136 1.06410421 30.97515096 1.07543945 34.63623047 C1.0863118 38.16995218 1.09228607 41.70365146 1.09487724 45.23738861 C1.09762169 47.24039958 1.10542683 49.24340154 1.11329651 51.24639893 C1.11340981 53.07784454 1.11340981 53.07784454 1.11352539 54.94628906 C1.115746 56.02106506 1.11796661 57.09584106 1.12025452 58.20318604 C1.01426347 60.6682679 0.84828944 62.68792686 0 65 C-2.60179663 66.30089831 -4.5969188 66.16840078 -7.5 66.1875 C-8.4796875 66.20167969 -9.459375 66.21585937 -10.46875 66.23046875 C-13 66 -13 66 -15 64 C-13.72125 63.855625 -12.4425 63.71125 -11.125 63.5625 C-8.74307106 63.29357254 -7.15547309 63.07773654 -5 62 C-2.875 62.4375 -2.875 62.4375 -1 63 C-1.00222061 62.28447464 -1.00444122 61.56894928 -1.00672913 60.83174133 C-1.0267914 54.07859181 -1.0420044 47.32545065 -1.05181217 40.57227802 C-1.05702399 37.10066262 -1.06409068 33.6290719 -1.07543945 30.1574707 C-1.08841348 26.16357185 -1.09324228 22.16969881 -1.09765625 18.17578125 C-1.10281754 16.93290848 -1.10797882 15.69003571 -1.11329651 14.40950012 C-1.11337204 13.24867416 -1.11344757 12.08784821 -1.11352539 10.8918457 C-1.115746 9.87258499 -1.11796661 8.85332428 -1.12025452 7.80317688 C-1.00417994 5.09743585 -0.60915034 2.63450968 0 0 Z " fill="#D0EF62" transform="translate(44,269)"/>
<path d="M0 0 C1.79133978 -0.05391993 3.58313899 -0.09275571 5.375 -0.125 C6.37273437 -0.14820312 7.37046875 -0.17140625 8.3984375 -0.1953125 C11 0 11 0 13 2 C13.2784729 4.5942688 13.2784729 4.5942688 13.31884766 7.91845703 C13.33871735 9.15959259 13.35858704 10.40072815 13.37905884 11.67947388 C13.39093611 13.03891827 13.40259892 14.39836455 13.4140625 15.7578125 C13.43276729 17.14502118 13.45234019 18.5322184 13.4727478 19.91940308 C13.52414812 23.57225804 13.56373125 27.22514994 13.60089111 30.87817383 C13.64088148 34.60507397 13.69199639 38.33181949 13.7421875 42.05859375 C13.83904019 49.37228988 13.92341475 56.6860606 14 64 C14.99 64 15.98 64 17 64 C16.34 64.99 15.68 65.98 15 67 C14.01 66.67 13.02 66.34 12 66 C12 45.54 12 25.08 12 4 C7.73727501 2.29491 4.48688907 1.5278693 0 1 C0 0.67 0 0.34 0 0 Z " fill="#CFF25B" transform="translate(283,124)"/>
<path d="M0 0 C9.25716092 4.49244574 15.93512673 9.67928972 22 18 C21.67 18.66 21.34 19.32 21 20 C19 18.625 19 18.625 17 17 C17 16.34 17 15.68 17 15 C16.34 15 15.68 15 15 15 C14.67 15.66 14.34 16.32 14 17 C14 16.34 14 15.68 14 15 C13.34 15 12.68 15 12 15 C11.835 13.906875 11.67 12.81375 11.5 11.6875 C10.45842378 7.98496415 10.45842378 7.98496415 8.15625 7.04296875 C6.02039652 6.34992441 6.02039652 6.34992441 3.875 5.8984375 C2 5 2 5 0.75 2.4140625 C0.5025 1.61742187 0.255 0.82078125 0 0 Z " fill="#CEF54F" transform="translate(350,181)"/>
<path d="M0 0 C1.00758121 3.02274362 0.9985168 5.29818696 0.88427734 8.44628906 C0.62262682 16.16052973 1.31464266 22.05969202 5 29 C5.66666667 30.33333333 6.33333333 31.66666667 7 33 C4.5446424 32.64923463 3.33299953 32.40699942 1.734375 30.453125 C-2.28847421 21.44960534 -1.91175097 10.69725759 -1 1 C-0.67 0.67 -0.34 0.34 0 0 Z " fill="#CFF365" transform="translate(400,216)"/>
<path d="M0 0 C5.68046944 0.94055703 9.72424312 1.86217076 14 6 C10.0186217 7.3271261 6.14954773 7.06915913 2 7 C2 6.34 2 5.68 2 5 C2.66 4.67 3.32 4.34 4 4 C2.68 3.34 1.36 2.68 0 2 C0 1.34 0 0.68 0 0 Z " fill="#CBF74B" transform="translate(236,179)"/>
<path d="M0 0 C1.32 0.33 2.64 0.66 4 1 C2.40112446 2.48488441 0.79571095 3.96273145 -0.8125 5.4375 C-1.70582031 6.26121094 -2.59914063 7.08492188 -3.51953125 7.93359375 C-6 10 -6 10 -9 11 C-9.66 10.01 -10.32 9.02 -11 8 C-8.8709858 5.65808437 -6.95591271 4.16445046 -4 3 C-2.68 3 -1.36 3 0 3 C0 2.01 0 1.02 0 0 Z " fill="#D2F65A" transform="translate(364,260)"/>
<path d="M0 0 C1.57848355 2.80427714 2.25499665 4.83255804 2.265625 8.046875 C2.26820313 8.81 2.27078125 9.573125 2.2734375 10.359375 C2.26570312 11.14828125 2.25796875 11.9371875 2.25 12.75 C2.25773438 13.5234375 2.26546875 14.296875 2.2734375 15.09375 C2.25571808 20.37413846 1.45981479 24.92540572 0 30 C-0.99 29.34 -1.98 28.68 -3 28 C-2.5020163 24.26512223 -2.12508244 22.18762365 0 19 C0.27441372 16.8729569 0.27441372 16.8729569 0.1953125 14.55078125 C0.18886719 13.70322266 0.18242188 12.85566406 0.17578125 11.98242188 C0.15064453 10.66081055 0.15064453 10.66081055 0.125 9.3125 C0.11146484 7.97348633 0.11146484 7.97348633 0.09765625 6.60742188 C0.07409748 4.40467686 0.04120329 2.20247412 0 0 Z " fill="#CFF555" transform="translate(126,214)"/>
<path d="M0 0 C0.66 0 1.32 0 2 0 C1.67 0.99 1.34 1.98 1 3 C0.34 3 -0.32 3 -1 3 C-1.04125 3.721875 -1.0825 4.44375 -1.125 5.1875 C-2.38352165 9.23274817 -4.63589117 10.49481257 -8 13 C-8.66 12.67 -9.32 12.34 -10 12 C-8.52149287 10.18696196 -7.04217625 8.37458402 -5.5625 6.5625 C-4.32693359 5.04849609 -4.32693359 5.04849609 -3.06640625 3.50390625 C-1 1 -1 1 0 0 Z " fill="#D5F668" transform="translate(190,189)"/>
<path d="M0 0 C-2.31313784 1.54209189 -4.46048029 2.78288475 -6.9375 4 C-7.60652344 4.33 -8.27554688 4.66 -8.96484375 5 C-9.97224609 5.495 -9.97224609 5.495 -11 6 C-12.33379533 6.66574186 -13.6672635 7.33214099 -15 8 C-15.33 6.68 -15.66 5.36 -16 4 C-14.1875 2.4375 -14.1875 2.4375 -12 1 C-11.01 1.33 -10.02 1.66 -9 2 C-5.5647952 -0.29013653 -4.014669 -0.17842973 0 0 Z " fill="#D0F655" transform="translate(172,193)"/>
<path d="M0 0 C1.66666667 0 3.33333333 0 5 0 C5 1.98 5 3.96 5 6 C-1.52307692 5.50769231 -1.52307692 5.50769231 -3.9375 2.9375 C-4.4634375 1.9784375 -4.4634375 1.9784375 -5 1 C-3.68 1 -2.36 1 -1 1 C-0.67 0.67 -0.34 0.34 0 0 Z " fill="#CEF74C" transform="translate(196,264)"/>
<path d="M0 0 C1.65 0 3.3 0 5 0 C0.51463747 4.33069486 -5.02181831 6.49157335 -11 8 C-11.99 7.67 -12.98 7.34 -14 7 C-9.6147081 4.02931839 -5.01508715 2.54058233 0 1 C0 0.67 0 0.34 0 0 Z " fill="#D6F561" transform="translate(101,269)"/>
<path d="M0 0 C0.99 0.33 1.98 0.66 3 1 C3.66 2.65 4.32 4.3 5 6 C-0.94 6.495 -0.94 6.495 -7 7 C-4.66666667 4.66666667 -2.33333333 2.33333333 0 0 Z " fill="#D0F45F" transform="translate(41,184)"/>
<path d="M0 0 C0 0.66 0 1.32 0 2 C-3.96 3.98 -3.96 3.98 -8 6 C-8 6.99 -8 7.98 -8 9 C-10.31 9 -12.62 9 -15 9 C-11.23001737 4.75876954 -6.01786385 0 0 0 Z " fill="#CDF452" transform="translate(164,181)"/>
<path d="M0 0 C0.66 0.33 1.32 0.66 2 1 C1.72285156 1.57105469 1.44570313 2.14210937 1.16015625 2.73046875 C-1.99736794 9.79837876 -2.75871045 16.30286333 -3 24 C-3.33 24 -3.66 24 -4 24 C-4.08172936 21.4784979 -4.14083373 18.95970083 -4.1875 16.4375 C-4.21263672 15.73302734 -4.23777344 15.02855469 -4.26367188 14.30273438 C-4.33536989 9.11657804 -3.36379233 5.62636434 -1 1 C-0.67 0.67 -0.34 0.34 0 0 Z " fill="#D4F375" transform="translate(47,209)"/>
<path d="M0 0 C1.77682248 0.90500296 3.54626591 1.8245025 5.3125 2.75 C6.29863281 3.26046875 7.28476562 3.7709375 8.30078125 4.296875 C10.95450276 5.97129263 12.33102197 7.37976145 14 10 C13.505 9.731875 13.01 9.46375 12.5 9.1875 C10.12773317 7.99083243 10.12773317 7.99083243 8.0234375 7.375 C7.31445312 7.148125 6.60546875 6.92125 5.875 6.6875 C5.19179688 6.48511719 4.50859375 6.28273437 3.8046875 6.07421875 C1.26207964 4.56076169 0.86984827 2.74854118 0 0 Z " fill="#D4F465" transform="translate(350,181)"/>
<path d="M0 0 C1.97119141 -0.34057617 1.97119141 -0.34057617 4.3515625 -0.29296875 C5.62773437 -0.2784668 5.62773437 -0.2784668 6.9296875 -0.26367188 C7.81914062 -0.23853516 8.70859375 -0.21339844 9.625 -0.1875 C10.97078125 -0.16719727 10.97078125 -0.16719727 12.34375 -0.14648438 C14.56309789 -0.11106925 16.78125188 -0.06168461 19 0 C19.33 0.66 19.66 1.32 20 2 C9.11 2.495 9.11 2.495 -2 3 C-1.34 2.01 -0.68 1.02 0 0 Z " fill="#D3F661" transform="translate(423,261)"/>
<path d="M0 0 C3.25244875 1.25094183 6.26481012 2.44500147 9.25 4.25 C10.125 6.4375 10.125 6.4375 10.25 8.25 C9.59 7.92 8.93 7.59 8.25 7.25 C8.25 6.59 8.25 5.93 8.25 5.25 C7.115625 5.12625 5.98125 5.0025 4.8125 4.875 C3.636875 4.66875 2.46125 4.4625 1.25 4.25 C0.92 3.59 0.59 2.93 0.25 2.25 C-1.73 2.58 -3.71 2.91 -5.75 3.25 C-5.42 2.26 -5.09 1.27 -4.75 0.25 C-2.75 -0.75 -2.75 -0.75 0 0 Z " fill="#D9F466" transform="translate(472.75,184.75)"/>
<path d="M0 0 C-0.639375 0.103125 -1.27875 0.20625 -1.9375 0.3125 C-2.618125 0.539375 -3.29875 0.76625 -4 1 C-4.33 1.99 -4.66 2.98 -5 4 C-11.15234375 3.4140625 -11.15234375 3.4140625 -13 3 C-13.33 2.34 -13.66 1.68 -14 1 C-12.04310963 0.63794536 -10.08442332 0.28558579 -8.125 -0.0625 C-7.03445312 -0.25972656 -5.94390625 -0.45695313 -4.8203125 -0.66015625 C-2 -1 -2 -1 0 0 Z " fill="#CDF556" transform="translate(233,248)"/>
<path d="M0 0 C2.72647685 2.35468455 3.98756342 4.5408417 5 8 C4.625 10.3125 4.625 10.3125 4 12 C3.67 11.01 3.34 10.02 3 9 C2.34 9 1.68 9 1 9 C-0.4783226 6.04335481 -0.06032783 3.25770263 0 0 Z " fill="#CFF656" transform="translate(121,202)"/>
<path d="M0 0 C0.66 0.33 1.32 0.66 2 1 C1.195625 1.763125 0.39125 2.52625 -0.4375 3.3125 C-3.16799024 5.79430898 -3.16799024 5.79430898 -4 9 C-6.97 8.505 -6.97 8.505 -10 8 C-6.91367389 4.7373124 -4.06516496 1.97764782 0 0 Z " fill="#CFF65A" transform="translate(202,181)"/>
<path d="M0 0 C0.66 0 1.32 0 2 0 C3.625 2.5 3.625 2.5 5 5 C2.36 5 -0.28 5 -3 5 C-3.66 3.68 -4.32 2.36 -5 1 C-2.525 1.495 -2.525 1.495 0 2 C0 1.34 0 0.68 0 0 Z " fill="#D2F651" transform="translate(137,273)"/>
<path d="M0 0 C0.598125 0.226875 1.19625 0.45375 1.8125 0.6875 C1.06925659 3.08239543 0.34192646 4.39527616 -1.87890625 5.62109375 C-3.62823501 6.35969923 -5.40684149 7.02799685 -7.1875 7.6875 C-4.27205882 -0.61029412 -4.27205882 -0.61029412 0 0 Z " fill="#CEF651" transform="translate(398.1875,194.3125)"/>
<path d="M0 0 C1.81325551 0.11351517 3.62563357 0.24112961 5.4375 0.375 C6.95150391 0.47941406 6.95150391 0.47941406 8.49609375 0.5859375 C9.73552734 0.79089844 9.73552734 0.79089844 11 1 C11.33 1.66 11.66 2.32 12 3 C7.38 3 2.76 3 -2 3 C-1.34 2.01 -0.68 1.02 0 0 Z " fill="#D8F53D" transform="translate(429,275)"/>
<path d="M0 0 C0.33 0 0.66 0 1 0 C1.50112337 5.67939822 -0.92797776 9.39196664 -4 14 C-4.99 13.67 -5.98 13.34 -7 13 C-6.66226562 12.48050781 -6.32453125 11.96101562 -5.9765625 11.42578125 C-3.60108299 7.71151993 -1.44237185 4.19599085 0 0 Z " fill="#D0F55A" transform="translate(364,237)"/>
<path d="M0 0 C0.99 0.33 1.98 0.66 3 1 C-0.33333333 4.33333333 -3.66666667 7.66666667 -7 11 C-6.34 8.36 -5.68 5.72 -5 3 C-4.01 3.33 -3.02 3.66 -2 4 C-1.34 2.68 -0.68 1.36 0 0 Z " fill="#D2F55E" transform="translate(410,199)"/>
<path d="M0 0 C0.33 0.66 0.66 1.32 1 2 C0.38125 2.0825 -0.2375 2.165 -0.875 2.25 C-3.18437567 2.81258459 -3.18437567 2.81258459 -4.25 5.0625 C-4.4975 5.701875 -4.745 6.34125 -5 7 C-7.64 7 -10.28 7 -13 7 C-10.31767339 5.21178226 -7.69711039 3.79857396 -4.8125 2.375 C-3.91144531 1.92898437 -3.01039063 1.48296875 -2.08203125 1.0234375 C-1.39496094 0.68570313 -0.70789063 0.34796875 0 0 Z " fill="#D3F256" transform="translate(456,254)"/>
<path d="M0 0 C3.34905453 3.34905453 3.89470285 5.49378854 5 10 C3.35 9.67 1.7 9.34 0 9 C0 6.03 0 3.06 0 0 Z " fill="#CEF456" transform="translate(372,201)"/>
<path d="M0 0 C0 0.66 0 1.32 0 2 C-9.41002278 6.40774487 -9.41002278 6.40774487 -14 7 C-11.725306 4.44736912 -9.56797307 3.15855185 -6.4375 1.8125 C-5.65246094 1.46832031 -4.86742187 1.12414062 -4.05859375 0.76953125 C-2 0 -2 0 0 0 Z " fill="#D7F37A" transform="translate(64,179)"/>
<path d="M0 0 C2.1875 2.5 2.1875 2.5 4 5 C3.34 5.66 2.68 6.32 2 7 C1.236875 6.38125 0.47375 5.7625 -0.3125 5.125 C-2.99625809 2.94402948 -2.99625809 2.94402948 -6 1 C-3 0 -3 0 0 0 Z " fill="#D6F662" transform="translate(454,194)"/>
<path d="M0 0 C0.99 0.66 1.98 1.32 3 2 C2.38125 2.9075 1.7625 3.815 1.125 4.75 C-0.44389611 7.14948817 -1.80443821 9.40961612 -3 12 C-3.625 9.1875 -3.625 9.1875 -4 6 C-2.66666667 4 -1.33333333 2 0 0 Z " fill="#D0F555" transform="translate(205,211)"/>
<path d="M0 0 C1.14926266 0.95421808 2.29430541 1.91352045 3.4375 2.875 C4.07558594 3.40867188 4.71367188 3.94234375 5.37109375 4.4921875 C7 6 7 6 8 8 C5.69 7.34 3.38 6.68 1 6 C0.4465236 3.92446352 0 2.15634036 0 0 Z " fill="#D5F452" transform="translate(50,248)"/>
<path d="M0 0 C0 3.3 0 6.6 0 10 C-1.99097846 7.01353231 -2.94124926 4.40312738 -4 1 C-2 0 -2 0 0 0 Z " fill="#CFF453" transform="translate(365,208)"/>
<path d="M0 0 C0.33 0.66 0.66 1.32 1 2 C-0.32 2 -1.64 2 -3 2 C-3.33 3.32 -3.66 4.64 -4 6 C-5.98 5.34 -7.96 4.68 -10 4 C-7.80202597 1.80202597 -6.82453855 1.54102483 -3.875 0.875 C-2.59625 0.58625 -1.3175 0.2975 0 0 Z " fill="#D3F666" transform="translate(215,177)"/>
<path d="M0 0 C0.33 0.99 0.66 1.98 1 3 C0.01 4.485 0.01 4.485 -1 6 C-4.125 6.1875 -4.125 6.1875 -7 6 C-7 5.34 -7 4.68 -7 4 C-4.69 2.68 -2.38 1.36 0 0 Z " fill="#D0F44F" transform="translate(351,255)"/>
<path d="M0 0 C3.4375 0.8125 3.4375 0.8125 7 2 C7.33 2.99 7.66 3.98 8 5 C7.01 6.485 7.01 6.485 6 8 C4.02 5.36 2.04 2.72 0 0 Z " fill="#D2F463" transform="translate(352,199)"/>
<path d="M0 0 C1.9453125 -0.29296875 1.9453125 -0.29296875 4.125 -0.1875 C5.40375 -0.125625 6.6825 -0.06375 8 0 C8.33 0.66 8.66 1.32 9 2 C5.37 2.33 1.74 2.66 -2 3 C-1.34 2.01 -0.68 1.02 0 0 Z " fill="#D6F173" transform="translate(135,177)"/>
<path d="M0 0 C0.99 0 1.98 0 3 0 C3.66 0.66 4.32 1.32 5 2 C5.66 2.33 6.32 2.66 7 3 C3.25 6 3.25 6 1 6 C1 5.01 1 4.02 1 3 C0.34 3 -0.32 3 -1 3 C-0.67 2.01 -0.34 1.02 0 0 Z " fill="#CCF64D" transform="translate(457,265)"/>
<path d="M0 0 C1.32 0 2.64 0 4 0 C7.34821429 6.96428571 7.34821429 6.96428571 6 11 C5.18697675 9.54195831 4.37459869 8.08355685 3.5625 6.625 C3.11003906 5.81289062 2.65757813 5.00078125 2.19140625 4.1640625 C1.4349464 2.79003378 0.70145369 1.40290739 0 0 Z " fill="#CDF365" transform="translate(104,204)"/>
<path d="M0 0 C0.66 0.33 1.32 0.66 2 1 C0.35 2.65 -1.3 4.3 -3 6 C-4.32 5.34 -5.64 4.68 -7 4 C-1.7265625 0.77734375 -1.7265625 0.77734375 0 0 Z " fill="#CFF35F" transform="translate(307,182)"/>
<path d="M0 0 C1.32 1.65 2.64 3.3 4 5 C3.34 6.65 2.68 8.3 2 10 C1.34 9.67 0.68 9.34 0 9 C0 6.03 0 3.06 0 0 Z " fill="#CFF84D" transform="translate(281,256)"/>
<path d="M0 0 C-1.75 5.75 -1.75 5.75 -4 8 C-4.33 5.69 -4.66 3.38 -5 1 C-3 0 -3 0 0 0 Z " fill="#D2F752" transform="translate(269,247)"/>
<path d="M0 0 C0.99 0 1.98 0 3 0 C3 1.98 3 3.96 3 6 C2.67 5.34 2.34 4.68 2 4 C0.68 4.33 -0.64 4.66 -2 5 C-2 4.01 -2 3.02 -2 2 C-1.34 2 -0.68 2 0 2 C0 1.34 0 0.68 0 0 Z " fill="#CEF74F" transform="translate(142,179)"/>
<path d="M0 0 C2.97 0.33 5.94 0.66 9 1 C9 1.66 9 2.32 9 3 C9.66 3.33 10.32 3.66 11 4 C7.0507432 3.44894091 3.65079826 2.61064629 0 1 C0 0.67 0 0.34 0 0 Z " fill="#D5F568" transform="translate(307,272)"/>
<path d="M0 0 C2.29013653 3.4352048 2.17842973 4.985331 2 9 C1.34 9 0.68 9 0 9 C-0.87890625 2.84765625 -0.87890625 2.84765625 -1 1 C-0.67 0.67 -0.34 0.34 0 0 Z " fill="#CDF650" transform="translate(377,229)"/>
<path d="M0 0 C0.66 0.33 1.32 0.66 2 1 C-0.52788007 3.79872437 -2.20411134 5.45773019 -6 6 C-6 5.34 -6 4.68 -6 4 C-5.01 4 -4.02 4 -3 4 C-3 3.01 -3 2.02 -3 1 C-2.01 0.67 -1.02 0.34 0 0 Z " fill="#D5F56D" transform="translate(419,193)"/>
<path d="M0 0 C-2.85478326 1.90318884 -4.41941308 2.4619099 -7.6875 3.125 C-8.49574219 3.29257812 -9.30398437 3.46015625 -10.13671875 3.6328125 C-10.75160156 3.75398438 -11.36648437 3.87515625 -12 4 C-8.21692645 0.21692645 -5.303392 -0.24106327 0 0 Z " fill="#D3F456" transform="translate(243,273)"/>
<path d="M0 0 C2.01136276 2.55991624 3.62845496 5.04590299 5 8 C4.01 8 3.02 8 2 8 C2 7.01 2 6.02 2 5 C1.01 4.67 0.02 4.34 -1 4 C-0.67 2.68 -0.34 1.36 0 0 Z " fill="#D1F35A" transform="translate(45,239)"/>
<path d="M0 0 C6.875 3.75 6.875 3.75 8 6 C5.125 5.8125 5.125 5.8125 2 5 C0.625 2.4375 0.625 2.4375 0 0 Z " fill="#D4F555" transform="translate(250,185)"/>
<path d="M0 0 C4.875 2.75 4.875 2.75 6 5 C4.35 5 2.7 5 1 5 C0.67 3.35 0.34 1.7 0 0 Z " fill="#D5F55F" transform="translate(107,186)"/>
<path d="M0 0 C2.9719385 1.12451727 5.33440687 2.22293791 8 4 C5.36 4 2.72 4 0 4 C0 2.68 0 1.36 0 0 Z " fill="#D3F562" transform="translate(58,256)"/>
<path d="M0 0 C0.66 0.99 1.32 1.98 2 3 C-0.375 4.5625 -0.375 4.5625 -3 6 C-3.66 5.67 -4.32 5.34 -5 5 C-3.35 3.35 -1.7 1.7 0 0 Z " fill="#CEF25B" transform="translate(462,248)"/>
<path d="M0 0 C2.0625 0.4375 2.0625 0.4375 4 1 C3.67 1.66 3.34 2.32 3 3 C3.99 3.33 4.98 3.66 6 4 C4.35 4.33 2.7 4.66 1 5 C1 4.01 1 3.02 1 2 C0.34 1.67 -0.32 1.34 -1 1 C-0.67 0.67 -0.34 0.34 0 0 Z " fill="#D1F957" transform="translate(59,192)"/>
<path d="M0 0 C2.91517292 1.07401108 4.77810176 1.77810176 7 4 C5.02 4.33 3.04 4.66 1 5 C0.67 3.35 0.34 1.7 0 0 Z " fill="#D3F65D" transform="translate(243,181)"/>
<path d="M0 0 C-0.33 0.66 -0.66 1.32 -1 2 C-3.875 2.125 -3.875 2.125 -7 2 C-7.66 1.34 -8.32 0.68 -9 0 C-5.67465243 -1.10844919 -3.37817425 -0.84454356 0 0 Z " fill="#D1F163" transform="translate(175,179)"/>
</svg>
